<mxfile host="app.diagrams.net" modified="2023-09-24T19:55:11.677Z" agent="Mozilla/5.0 (Windows NT 10.0; Win64; x64) AppleWebKit/537.36 (KHTML, like Gecko) Chrome/116.0.0.0 Safari/537.36" etag="Xh31Rx0kz3TusTr1I3LF" version="21.8.0" type="google">
  <diagram name="Page-1" id="ubOat5OsVTDXOs9j5aWu">
    <mxGraphModel grid="1" page="1" gridSize="10" guides="1" tooltips="1" connect="1" arrows="1" fold="1" pageScale="1" pageWidth="850" pageHeight="1100" math="0" shadow="0">
      <root>
        <mxCell id="0" />
        <mxCell id="1" parent="0" />
        <mxCell id="Gr0FCKa1cLb1UoH6Iw7f-4" style="edgeStyle=orthogonalEdgeStyle;rounded=0;orthogonalLoop=1;jettySize=auto;html=1;entryX=0.5;entryY=0;entryDx=0;entryDy=0;" edge="1" parent="1" source="Gr0FCKa1cLb1UoH6Iw7f-1" target="Gr0FCKa1cLb1UoH6Iw7f-3">
          <mxGeometry relative="1" as="geometry" />
        </mxCell>
        <mxCell id="Gr0FCKa1cLb1UoH6Iw7f-1" value="" style="sketch=0;points=[[0,0,0],[0.25,0,0],[0.5,0,0],[0.75,0,0],[1,0,0],[0,1,0],[0.25,1,0],[0.5,1,0],[0.75,1,0],[1,1,0],[0,0.25,0],[0,0.5,0],[0,0.75,0],[1,0.25,0],[1,0.5,0],[1,0.75,0]];outlineConnect=0;fontColor=#232F3E;fillColor=#E7157B;strokeColor=#ffffff;dashed=0;verticalLabelPosition=bottom;verticalAlign=top;align=center;html=1;fontSize=12;fontStyle=0;aspect=fixed;shape=mxgraph.aws4.resourceIcon;resIcon=mxgraph.aws4.managed_workflows_for_apache_airflow;" vertex="1" parent="1">
          <mxGeometry x="50" y="60" width="68" height="68" as="geometry" />
        </mxCell>
        <mxCell id="Gr0FCKa1cLb1UoH6Iw7f-2" value="airflow" style="text;html=1;align=center;verticalAlign=middle;resizable=0;points=[];autosize=1;strokeColor=none;fillColor=none;" vertex="1" parent="1">
          <mxGeometry x="54" y="37" width="60" height="30" as="geometry" />
        </mxCell>
        <mxCell id="Gr0FCKa1cLb1UoH6Iw7f-3" value="" style="shape=image;html=1;verticalAlign=top;verticalLabelPosition=bottom;labelBackgroundColor=#ffffff;imageAspect=0;aspect=fixed;image=https://cdn4.iconfinder.com/data/icons/file-extensions-1/64/pdfs-128.png" vertex="1" parent="1">
          <mxGeometry x="50" y="240" width="68" height="68" as="geometry" />
        </mxCell>
        <mxCell id="Gr0FCKa1cLb1UoH6Iw7f-5" value="Trigger" style="text;html=1;align=center;verticalAlign=middle;resizable=0;points=[];autosize=1;strokeColor=none;fillColor=none;" vertex="1" parent="1">
          <mxGeometry x="56" y="161" width="60" height="30" as="geometry" />
        </mxCell>
        <mxCell id="Gr0FCKa1cLb1UoH6Iw7f-11" style="edgeStyle=orthogonalEdgeStyle;rounded=0;orthogonalLoop=1;jettySize=auto;html=1;" edge="1" parent="1" source="Gr0FCKa1cLb1UoH6Iw7f-6" target="Gr0FCKa1cLb1UoH6Iw7f-10">
          <mxGeometry relative="1" as="geometry">
            <Array as="points">
              <mxPoint x="250" y="464" />
              <mxPoint x="250" y="297" />
            </Array>
          </mxGeometry>
        </mxCell>
        <mxCell id="Gr0FCKa1cLb1UoH6Iw7f-6" value="" style="sketch=0;outlineConnect=0;fontColor=#232F3E;gradientColor=none;fillColor=#7AA116;strokeColor=none;dashed=0;verticalLabelPosition=bottom;verticalAlign=top;align=center;html=1;fontSize=12;fontStyle=0;aspect=fixed;pointerEvents=1;shape=mxgraph.aws4.bucket;" vertex="1" parent="1">
          <mxGeometry x="48.5" y="430" width="65.38" height="68" as="geometry" />
        </mxCell>
        <mxCell id="Gr0FCKa1cLb1UoH6Iw7f-8" style="edgeStyle=orthogonalEdgeStyle;rounded=0;orthogonalLoop=1;jettySize=auto;html=1;entryX=0.543;entryY=-0.029;entryDx=0;entryDy=0;entryPerimeter=0;" edge="1" parent="1" source="Gr0FCKa1cLb1UoH6Iw7f-3" target="Gr0FCKa1cLb1UoH6Iw7f-6">
          <mxGeometry relative="1" as="geometry" />
        </mxCell>
        <mxCell id="Gr0FCKa1cLb1UoH6Iw7f-9" value="Upload PDF Files" style="text;html=1;align=center;verticalAlign=middle;resizable=0;points=[];autosize=1;strokeColor=none;fillColor=none;" vertex="1" parent="1">
          <mxGeometry x="31" y="358" width="120" height="30" as="geometry" />
        </mxCell>
        <mxCell id="Gr0FCKa1cLb1UoH6Iw7f-10" value="" style="shape=image;verticalLabelPosition=bottom;labelBackgroundColor=default;verticalAlign=top;aspect=fixed;imageAspect=0;image=data:image/png,iVBORw0KGgoAAAANSUhEUgAAAVMAAAFOCAYAAAA7A/4xAAAAAXNSR0IArs4c6QAAAARnQU1BAACxjwv8YQUAAAAJcEhZcwAADsMAAA7DAcdvqGQAAGSJSURBVHhe7b15bBx5luf3zcg7k6d4XxJJkdR9lequ6qru6u7qmu6Z2bnX6x3/ZWC8WDSwxtqA/9h/2sAauwNjsdgBDNtYHwuvsV6PZ3a65+irqrvrrlJVSSrdEi+JFMX7Zt6Rken3XmT11LQyghKZFDPI9+nKlhiRVGZc3997v987fLf/qKkIRVEUZVsYpT8VRVGUbaBiqiiKUgFUTBVFUSqAiqmiKEoFUDFVFEWpACqmiqIoFUDFVFEUpQKomCqKolQAFVNFUZQKoGKqKIpSAVRMFUVRKoCKqaIoSgVQMVUURakAKqaKoigVQMVUURSlAqiYKoqiVAAVU0VRlAqgYqooilIBVEwVRVEqgIqpoihKBVAxVRRFqQAqpoqiKBVAxVRRFKUCqJgqiqJUABVTRVGUCqBiqiiKUgFUTBVFUSqAiqmiKEoFUDFVFEWpACqmiqIoFUDFVFEUpQKomCqKolQAFVNFUZQKoGKqKIpSAVRMFUVRKoCKqaIoSgVQMVUURakAKqaKoigVQMVUURSlAqiYKoqiVAAVU0VRlAqgYqooilIBVEwVRVEqgIqpoihKBVAxVRRFqQAqpoqiKBXAd/uPmoqlvys7TNEy6f8L8Bk+Gsb88Pn89g7FlWKxiGKez12Rzhn94QvQS8+dUl2omD4pWBByCfrThC9skBZE6BUt7VTcKFp5FNIbJKWWDEQ+fw0NRqHSXkWpDlRMnwA+tkKDMcSOvYJIzwn4axvIuAqrZfqIFAsFskwzyEzdQXrsIvJLoyikVgF/mPayqaoou4+K6U5C1igpAfz17Qi1D6H+5T9E7MjLCNS1kHVFrqryaLBVX8gjPf45Nj5/C6lrf4HczE2yTlVMlepBF6B2EhLSYi6FcOcxHPjGP0Zs4DkEapvFUlUeAx+59kaArPpjaPzKHyDcdQq+cAOb/KU3KMruo3fjjkKWqc9CoKEZkd6z8Ne1knsfFHFQHhM6Z0akBsGmbkT6nkG4+yxtovNIFquiVAMqpjsJa6bfB380ToLaBiMUsbcrW4ct1MPPIzr4olimdoSEouw+KqY7CbunbInq/GjF8BkGQq2HEOk+hkB9J3yheGmPouwuKqY7icz1+UUAlApB5zRQ24hgay9C3acQqGsD2DotFkpvUJTdQZ9yxZME6loRP/VrCLYNoJBLkZZapT2KsjtoaNRO4iuQIWWi8ev/GC2/98eljWXgVX8OTM8m6ZUpbdyn8EJTIEjuexRGOFba+DCFTAK5pWms/uLfYu2d/41+j+wCXpBSlF1CxXQneUQx5VTJYjaF3MIEzOVp+r3Sjn0IT4sY4SgCjR0ItfZvKpArP/tfsfSjP0EhvYKimd30/YqyU6iY7iSPKKZsZeVX57D23v+LxOUfwhekjft1AobEkAW15swbOPCtf0L+PFmphvMCXuL629j47C+Ruv4jGogm4QtEVFCVXUHFdCd5RDG1UmswF6ew9Ff/Cmtv/zv4wgH4/PtUEDjbqZhH7fnfQfNvfw/Bpi74axpLOx8mNz+B9PglrPz0XyMzcdEWU82KUnYBXYCqCkqr/kH6M2KQmEboVbNPXzHA74e5NovEzQ9gksXuRrC5G7HBp0l0O2R6QIVU2S1UTKuBXz7/9Bf+j93UffuiwYSsS2ttGslrfw5zYcQuv8d1Dsogc6zROkT6XkC45ymegEaxoIH8ypNHxVSpLlhM/WFYiUVkRn8Oc24YVnKVBNI5bZQrcEX6n0fk0Hn6gUS3qGFSypNHxVSpSoqFIgq5AjIPxpC+dx2FbLq052E4yyzcNUCW6RD8sTiJsRaSUZ48KqZKdcIWqi+E3PRNZMY/RCG95urqB+KNCDX3kaCeh7+mhYzTHCty6R2KsvOomCpVic/gwP0a5GauID36MxRSy6SlLu47Caq/oQfR47+JwIE+FM2UiqnyRFExVaqaopmDtbaM9MQNmAtTpa3lCdQ1I37sBYRau9mwJTTqT3lyqJgqVQ0bl/nkGlmnF5CbHSltLY8/VotI9xGE2g7DX9dmdzNQ61R5QqiYKlUNr+wXMxtI3vgBMpMXSlsd4HlWI4Bw1znEjn8bBolrsbDPax0oTwwVU6W6IYHkIjD55Wnk5saQnR6Fld4o7SyDz4dQ5xHEjnwFRqQOKKhlqjwZVEyV6odDR80izIUZJIc/hbW+VNpRnlBbr2RF+aMH6Bf5Fte5U2XnUTFVqh9230NRmIsjSFz8v2Au3y3tKA+30Dai9YgMvYpwz1mQKUsWqmZFKTuLiqlS/bCY+kOwNuaRGf+ALNRxWMk1cD/9spCrb0RqER14kcT0FL3PdA+rUpQKoGKqeIaiVUQxk0f2wRgy05yzny3teRguehI7fAbh7iP0k089fWXHUTFVPIPPF6D/CyIzeRWZsQso5lxSTI2AlO4Ltg4ifOgl+nszufokvhoqpewQKqaKd+C4UXL3s1PXkCYxLaQ3SBsd3Hdy9bkASrCpH9ET34G/oZMsWw6TUjFVdgYVU8VjkKufXkV++T4y928ivzpf2l6eYGMrak99BaEDHbarr+6+skOomCoeg8Q0n4G1NoPU8Mcw5++VtpfHH69HpHtI3H1/XSfd8X76J3QxSqk8KqaK9yA9tJLzSFz7CbLTN0sby+PzB+GP1iPcdQbhg8/BCAZQ5LlTRakwKqaKx+AWL2EyLi3kl+5KVlRuYRKFbKq0/1fg6v2GgXD3McQGn5XWKE6l/BRlO6iYKt7DCMmifCG5SGI6iszkDVip9dLO8oTa+xHtP4dAbavk+9ur+iqqSuVQMVU8ibSLCgDm3G0krvwQ1tpsaU95jHAMgcYuhHtfQLC5nyzbBGmpcysURXlcVEwVb8IFS/0h5ElEs3c/Q25x0rZOnarx+wPw1zYhOvACWalHAMvUIihKRVExVbyJz0//xVDIpGAujiM3MwpzedY57pTwR+sQP/YiIt3HZUFfp06VSqJiqngY9vWLJIwppMc+QWb8M/Lcc6V9DyMr+5wV1TZI7v7L8McbyDrVQH6lMqiYKp7GZ3DefR7Z+1eQuXsJBXL1i+zCl8MwZO402HoY0SNfJWFtovdy4z01UZXto2KqeBtfiF5hCeLPzd2RAijWxmppZ3lCzd2oPft1BOo7AJ4VUC1VKoCKqeJteCGKbuOilUZ+dRKpOx/CXLpv73PAIPc+0vnlrChSU13ZV7aJiqnifcjT5zs5vz6LxJWfIDc7am93wAhF4a9vRajzFILtx0RMiwXnuVZFeRRUTJU9gA8+fwRF00R+/g5y82MwV2boZ+e0UZ9hINJ7SrKiDH9M16CUbaNiquwBeFU/SK5+HlZihizTO8jev4lCJlHaXw4fwu2HETl0Gv6advgCkZKrrxOoytZQMVX2DF9kRXG9043LPyG3f7G0pwz0Zn9NA4ItfQh1nYW/tpXEOKlzp8qWUTFV9g4+P0Dufn51BtnJy8gvP3C1TjnuNFDXitjRlxBqOwxYFrn7apkqW0PFVNk7fJEVlVpFfmEYuYW7ZJ0ukbXpLJAcxB8//hWEO46iWPCXnHwVVOXxUTFV9h50VxfySQmTSt/9nLTUeXXJFwwj0NghgfzBliMwgqFSVpQKqvJ4qJgqew6fQRamZSIzcZnc/asoZpOyOFUOKYASqyM3fxCR/udgROvs92pWlPKYqJgqew+DrMuiAXN+BObcLeTX5l07mTKhzkHUnv8OAg2dGialbAkVU2UPwlH8RCELc2UKyVsf0p/u9U4Dtc2IdB9DsHkARryZxNi0X4ryiKiYVhvkXvL/pBL8br32xHwhCWrAJ/VON67+HObCJImr87EZ0RoEm7oRaj+KQONB2pKnU6FhUsqjo2JabfBcnZWWmMfde7FLzMLjYbhvvhGFlVhBdvRtcfmtNFeUcq536guEED38LKIDz9MPYXX3lcfCd/uPmnSmfafwFeiZNtH49X+Mlt/749LGh+FYSHNlDqtv/+/Y+OTPyaKiMY4j0HeDgknebQaFVCk+k1sje5hiPotiLoHGb/4T1L3wh+TKHyErtLa09+/ChaXN5Rkkr/4US3/9L2FtzNN1oMeD41fV7lA2QcV0J3lUMc2myYJaRuLqL5Aa+ZTElKwiqYb05ClmE8gvjSM7/j4ZyRZ8wWhpj0cpkJhaCbI2X0f81HdQ/+LvkjvfVdr5MCyoqdvvY/H7/wK52WvSUppjVzldVVHcUDHdSR5RTDkUp5jLILc4hfzqXMka3B3LlIslF5JLMBdGkR79GOmxz2gbL8Y4u8dVjfQnycGItyPa9yyafv2/QbjnhFSOciI7M4L1T/8KySt/iczoe/CFauiaqJgq7qiY7iSPKKbVhoi7mcbq+/8Bq2//n8ivTYvFulvWciUo5pIItfah+bf+e0SPvITggc7SnoexEqvIzt7F6i/+F6x/+O/hC5CQygCnrr7ijN4dykNw0LuPLLdo/zOoe+7vS9gQz6N6OpCd7vRCdgPJ4U+QnbpT2lgeIxpHuPMwQu2DCDT2AH4fDTCaFaW4o2K6k8izVyAN8tiysKyEBxBs6UV06AUEm3rJLSZXV2Ivvenu8/EUchlk7l5A9sE1CeJ36mQqjfc4K6p9CJHep2GEa+kyenSaQ3liqJjuKFzBnVMTvfkgBmobEe4YQLDtKPx17XQcbJ16tCK9EUYxbyJ7/wJy059LmBRcOpkyXPwkduIbJKwt2itK2RQV052kQGKaI8s0x3OQWQ9aNz5ZqIn2nycL7Rz9HKTBwd7jWegAzKVpJK5/AHN1vrSxPIHGNkQOnkCwuQ9GvEksdkVxQsV0p7GKsBJryC1MopBNlTZ6Bw5kjxw6ifDB0/AF60hPvLyqTWLo88NcZjH9Of35wHWA88frEWrtRZAsVH9DNwkxmaaeH02UncL/3fOx75X+rlQcfvDIlQzEUcgbCDS0IVBPLqOH8Pm41zx9/9QaMhNXIH3mvZpmyXPBvoCs7FurdxHtOyfzoj6/X/aVg+e7i2ZOaqRmpz4XQeX5V0X5VTQ0aidhK6aYhVHTimDTAOInXiO38ZS0yPBxYL6xy25joQBfKCJhQkY4RqLiLBJcF3TlnX+PzMj7yM3elEUaz4ZKcb3SYg6N3/rvUPvMHyDcOeAYd1rM55Cbn8TGxe9j+W/+hYSNacypUg4V0yeBlSFdzZCI9iDQcoTc5qdltVgEaRcpkFAEaptQc+pVEnsW1Hhpz8Nw1aX0+FWsvftvkbj8F/bqvov4VjV0LYqFLGInfws1Z34T9c98h67NgdLO8iQu/QBz/88/hZXcIEFVV195GBXTJ4Fk4XBqZhw+Eix/tNa2AnfZMi3mCyQiHYif+jXEjr6I2OGzpT0PY6e8rmD5x/8aq+/+O9ri4dumdD38tW2IHXkVzb/9zxBqOeRqafMUx9pHf4rUzbeQvX+t5Fl4u26BUllUTJ80xTw9x2n6swpOOxlYRrQZod4XUP/876LxK3/fFhSXVeuVn/1brL7z72AuT0gFey8LChdAiRw8g5a//8fyJ/eDcoILTGem7mDlrT9B8tJflFJMde5U+Vt0AepJI4sgQdIsfoV29+XnfkcWrJUJcfNjR14WMfUZzhZawTTJJvXBnL2DQnJ516cqtkUxJ5leRrQVRrzRNcWUe0UF61uQufsRWakX7XPn1TljZUdQMX3icHgOv9gCrIIXubvF3AYC9e0INPbCiMTl5QRPT/jo+2cnPyO3f5E3lPZ4D7G/yUOw0hsINnBM6Sl7axnLnAcYDhPjsCortY4CvTjFllNvFYWhp0nZ17Bu+MnSXJ5C4vrbyK9yew/nKYhgYzsiPceljJ1dF5Tf69GZIrLOC5kk0sO/QPbBFYkD3qy6fuTgM4if+HU6dnLzCx7NBlN2BBXT/U6p17y5PInktR/AXLwraZduc7pGpAbRoa8jfPBpss64K4D323tw+cPE7Y/tPvsuBFt7EO07gUANLyI+bMEq+xcV030PCYIRlKB8c+YGcnOjEgblJpC+UFzaIod7TomguKxXeQBy3/1BGkTuIXXzTekZ5TaQBOINCLX0Ith+FP76djpPZJ1qVpRCqJgqv4SrKPGKdWbihl1LwAEjFEH04LFftgCRep9ehcsNBqLIL40hef3PYa3ck/PgOHVB7zdiTWSZfwuhzqfoPCXp/drFVFExVUpIiqQRkoWl9Ng7UvvT0eLiiARe3W7uR+z4t8lC60Axz1lFHrXQfIakjFrrK8jOjCE3T4LqYpnzAl2Mi7/0HCEhltOhKCqmSgkSU3Z3czPXkb13Afn1Oan/6UbgQA/iZ34TQS6gzNZZNcTObhHJ/M3lkbl/G9n7N0VcneDU03D3EMJdQ5I55QuGvDuQKBVDQ6OUv4vFsZc1MGq74I/WuxZm4TAprnmanfycRHiYVIbDhLxppnFBFxhkoWbXSRyDiPZzUWhupFfmeNgyp/cX0kkacLgq2AqsjTnbulczdd+ilqnyd/EFYaXWkL7zDnJzJJBicZW3OI1wFIHGdilRF2zl6kskJp6tKMWPggFz+T5y07fo2O/BSq7a+8pBoimW+YlvkWXeQaeIj9u7lrmyfVRMlS9BFlcgTBbXOonpj8javEpaSiLh5L6TAPHUQLj7LCKDr8jvFi3nhauqh46zmM2QoM4iNfY5zKWZ0o7ycKB/zYmXSFTb9ElS9BZQfhVyUznFlFxYc34S6Xs3JOPHjXDnIGKDT8Ffy5WkPOzm8lcPhOh4V5G68aZtmbvAAwnH3Ia7zyNy6EUaTNgy10D+/YqKqfIwbIjmC1LHMz3yCayN5dLG8oSaOhHpOYZg80H4o3Uixt5cjCLL3M9ZURvI3P0YudlhSTV1XNkvpZiGe84hcvhFGKEQHbaGSe1XVEyVh+GsqGAM5sJdJK//CPnVB+TuO7f3YHffH29GdPB1hNpPoSCxlx6dO2Usrqy/TGI6Spb5tU0t80jXEKKHz7nWNFD2PiqmysPwirQRgJUkQZm5jezMKPIrc86CSu83ovUkKM8j1HmENrB15uVQIfb3feTmjyF1+z1YCfcUUw6PCrX20bGfRaCukw49S5a5y+Cj7ElUTBVHOO+eQ34y929JMDtcAtn9ZJVF+88i3HFYFsY9HSHEWVGhmKTWJq/9GNb6QmlHedjVD9R3IjLwDQRbj6KYT6qY7kM0zlRxhEvtsYVatEwSyxiJ5TlZsS8PvZdUlDuxWsk0uGldMb1C2/z8D5Xe4zE4MqFYQLDtCPzxJmk143QsfK4MOkf5lftIj12gJ4trxmp5vv2EWqaKMxyETiJpznJW0FXk1xZQyKXtfb8KiQnHmQZb+hE/+W1yd9tEhEmN7P0ehIuYFFIr0rIk8+C267yxLxxDuGsQofYB+GvaZaXftk69e/zK46FiqrhDllkhsw5zaRKpscswV+ZKO8oTaupC7emvSrFpmTb1sJbwyj4HJaRHPkBm7GPXRTUuHm0EozSYDCI69A1pgVK0uF6Biul+Qd185REgVSSXtZjPSrZPqO1wafvDSCX+UETmWPNriyiY67aFJhlGHkNc+qKESvnjDQh3n5YCLwa9HoanOehF4slTIWzN51emRJCdpgaUvYVapoo77L4HIigkFpG6+gPkZm7a7q6TxSWLN1GEDz0jsZc+P4mwlwPZyTIvpteQJ8s8c4+nOhZLO8oTajmImjOvIdDQRb/L0yTKfkHFVHkkOHCds6Jy8xPITN6GlUmW9jwMFwHheqcSexmIejxKiqzKYES6k65/+mfIzd4p7SgPW+bcyptTbENkycKggUezovYFKqbKo8GGaKFAYjKG1OgFFFLuRUC422m4cwiBA30wwnX0+1yiz4uqygtrXPxlFZmxjyRcioP4nbOiOOGBLPODZxA5dFZW9D2dwKA8MiqmyqNB7jq3K8lO30bq2o9gbbi7uzxvaMdevopgSx+K+RSbt6W93oOLXxc25mHO3yNBveta65WnNqJ9Z8gyf5rE1OOWufLIqJgqjwgvsBiSZmnOj5GgjEuolOPcKVmnnBkUP/ayhAvBcpln9QT03X15ZGduIXXnY+mZ5YgcexNCLf0IdZyCv6aZBJVX9r07mCibo2KqPBbFXArW+iyyD24htzDJW+wdZfDH6hEbOo9wxxD/IGLs9v5qhqdOETBgzg4jPfyBWObOcac+u9brgS6E+5+XP4tWWsV0j6OhUcrjUTRJWCzShaKIZaSX5wXLj8mcFcTzjbwCnl9bRjG7Ru7xBr3fTgbwFHwsvgAdfpa+eRHh7pMIkMXpVtyEj98fqUF+eRKZyatkumhW1F5GLdO9CFtAhRz98fBLVpalKvzWsBdULOSmbyL34Kb0mXecPyRLlPPWQ62HETvyCrm7B+jz6bM96e7To+ILSr2C/Po0MvcuIzs3VtpXHu7cGu45hlD7EXL7O2Vg2c65V6obFdO9SJGFM0F/0Cv7pRf/nKcXVzXaKmRdoRgkV38OufkxZKd5ddtl/pAIth5CzclXEKhtAbzu6ZJhWcitI3njbWTGL5U2lodbYAdqmiS3P9R9nqzYKJ17Hni8PHesOKFu/l5CLNIsjHizLHzUnPk2as/9OmpOvyHl8YKtA2QY5sVV5dV1KWTy2JlJ7J6TGJCF6/OHSRz8CHIfqKYue3cZeBqA4y9zcxPIJ1dI1FfpnyjQDu+5vHLO+PCzKQTqWhA5dEasdRbOh+Hz66NzTeeKfsmcG6ZBaJHer1lRexEV0z0Dx9/wyxIhjR19HfXP/z5qn/p1xI+/Ru7mKQQausmKTEiMaCExRc8zCQA3ft8KPhJlDuRfW0G46wjCHYMimuVEQlJMee40sY5CchXm0h36XYveX06AqhweAEhMi6llmbYItQ1J6xIO1HfCCISkPTRPDeRXZujfoI1ynlRQ9xIqpnuCIolThh7aIPy1Xag9/1uof/kfINjcAyMcty0nEjNeMOIixhymkx77sGQhbUFMSQN4MYbrmxaSSwi2D5FlelBK0Mm8YDn4d2gft1LOjF4gay3v/N6qh930HD09IbJQCwg1d9Pxd9u7ymAPJn7kZu9JoelCep7+Cfo3tjqQKVWJiulegJ9tKyvxjJGBl1Fz6puIDT4LIxixrUWCBdUIRRCobZLuo9nZcRFDXlChnfwOed+jwcpokKduksu+jkBNG4xYo2Q9sXiXQ1b2Q2EU0xvITt6kz83Q59PLqxYaf2WrQOK4ikjXUYRaeulpokGrzLSJDGZ0HazUBg0+KzDnyTIvFGmbVwcTpRyPO2GmVCvk4ftr22WeNNR5tLTxV+DVdRLYYMsRxE/+Lvz1HWTRcvzj1lJ0WAfZuMpMXUPq5nubBLIbUlw50NyHcO/z9Nlt9LEezYri82hEaVDaQO7+Z8jNjyLP1fidUkwJrjYVHXga0f6n6CcS0a2dcqWKUTHdC9DDbcSayTLsRZispEBdc2lHeYIHOsh6fVUWjrYVpkRK6vPHUdhYgDl3k0TlLllq3MnUCR8C9S2In3iVLLk+IM+Tj6VdXoQHE39BYkiTtz+UTqZOsHUaqG9FsG0Aoa5zMKTeqbdTbJW/i4qp1ylZlYEDBxHsIHezudt1MYThNM9o3ykEm/thRJvoSSdV2Ip1yosxRgSF7DrM5XvITt2iP6dLO8vDdUGjh59CiETFF6pnldnaZ1cBsrIfCCA7fQvpkQuwNpZIGx1aPZcsc65TEOl/TjoR2DG/aqLuFVRMPY48vAUTkd6nJPyJ3fjN4AwkXziOUM/TCPe9RAYm+erbij1lXVhH8s6HZKXdLG0sD8/jBhvbyEI7SuJ/ir5viPTEo7GXRlAsc2t1Crnpz2EuTsBKureFDja0oub01yVvX+L3vWyZK38HFVOPw8JoRLh+5nF6HSVhDJX2uMCLQeR2RnpOIjrAC1UcTL51C4m/QzFvIjd1TYpHW4kViWUtC8eckqDydETsyMsSYQCX3krVjT1pXMynYa3PID1+Cbn5e6V95TGidYh0H5OYX38NWacGewUO1qziKVRMPQ63JPaTyxjuHES4rZcspUcPt4n0HEF88DyMcC090Nu4FYwwYBVhLgwjN3sb5tKUBLW7wbVOa059jdz+VhJT+mwvW2gkiFZmTeZNearDbR7aCMcQbO6W+NRA8wBpMafnbsMrUKoGDY3yKkWLLKIMQh1HET/xLcQGn5cFjseCRKCQzcBcnqM/E+SiztqhPfx6bMiy5SIowRh9LzsrKtBAlpcTZBkzuZlx+lwugrIkP8s8rMeQc1YoophaRfBAO8JfZEW5DGyFHAkoeQPm/AgKqXV67yN4FEpVsw1zRNlV2Pop5iQwP3bsq5La+Liwe+6vbUZ08Iuao/YDvjXIXfX7kV+dRvLGz5FbuEdfL0Pfsfy/JzGv9J3Dh84iSFYaV6N3a6Vc1XB8GJ03a30KublhZO/fkmr8boTIi4gNPEvnoIOElCx7z3YiUL5AxdSrsAEZNEhMOxA7fBbcWngr+OP1iB9/QeYweUFky5FSZJ35jBgKyXXkpj6TAtJ5rvnJRaEd4JqfsaHnEO07Rx/MglTa4UVoLOEiKDyIbFz6CVn7M/Z2BwJ1TQh1DiDYevhLYVI6d+plVEw9CJfSY3c6fOgFcvNPyiLOVlMzOW+c3fFQ6yA93Gcg9TmlAdzjqiovxhgkxpxVtUHW2Q2k716lfypd2l8G+s5sWYfaB+k7HAK3iJaoAk9aaFzMJQJrbQ7pkfeQX75P54Et8/Lnka8XD4AcgRHuOilzzsXtxPwqu46KqRchMeUV/OiRNxAmAZT5R0nL3AL0u5wCGiAxjQy+KnGgEqq0xQfbx6vT/iIyU9eRHv0UhUzCWVDoszm9Ndjca7f3iNbRQMHi60Ex5XlTg8Q0uUKW+UWYi/fo76uuUxd83qNDLyJ88Ck6R2SZF7d4DZWqQMXUo/jjdYgPnSerrre0xQGy8iQWdRNrL9x2CLXnvolAfTuJdWnjVvBx7GUMeRKT3BRXSXpgC6oLwQNdqHnqOwi2HLY/28sGGj9RPguZiatIjVyy540dkMLZLQcRauuDv65dvA3Fu6iYegkWxKIpoVAhLjjcdhgBrl7vQn5jmSzEz2CuzJa2lMdf14xo72myEg9LaqpYh1tJdWQLzRciAV2BuTSOzP2bMFfnSjvLw5/Nc6cspr4QZ2+Rmno0zVJW9g2Djpss8/FPYKXX6LKVz9lny5znrDm1Ntz3LLn9TTSYbGfiWtlNVEy9BAkpu8Hh7rOIDHwVRrSerqB7KFFuehjLP/6fkbl7ubSlPJyZJB01O09JdhIMErMiz51uEbqzrPQqkrc+RHZ6pLSxPP5oDcIdh2lw6Ie/oZN+t0gC5NHYS64E5YvAnL6O7N2PYa3P02VzP5ZgSy/qnvsDKWNYNHkhyotzxoqKqYfgsm0czxjuPoZo/zkJAHdCMpLmJ5C+dxXpkc+QfTCC/Bo92HkHgeSsKHI7eWXd7vfOVfS3biFxrdRiNk2CcgG5mVtkqSZpIHCoqsSRAIEgHdcpslBfgRGpo+P0qqDwQpxPBoP8xhxSo5eRW5gq7SsPD2JcTSrYcoh0mI59kwFSqU5UTL0CWStc/9II1Uvr5EjPUYnVdIKtocz9G8iMX4Y5P47c7Ahyc3ddV9clxfTgcXmwjegB0gSyssRK2oKospiaORLS6zBnbyO/Oks/O88fMuGuY4gdfQX+GMfMkqBs9bOrAT/XLyXL/PZHdO7HXY+FC9OEO/oRah2QbggSmaGuvudQMfUCnO1E7r2/vhXRo69LTVApaOKygl/IpZC+8y4yEx+TMOZJSG+Ty/0BrKRbzVEfDK5s1HQI4Z5n6fPaSQOS8vlbgo20L2Ivr75Ngjpf2lGeQEOrpMUGmnrFOuWmgBL86jm49kEEhXQCmeG3kJu2Q8Q2S0oIH3oKseNfl2tbzHt0mmMfo2LqBdhKKeQRbOhE/MQ3EDxA1ou4guXFlIsWc358bvoW8iuTQDBAP98jK/UT+nnaNW+eXf1AQ4eE7ASbDwF5XhDZosvNizHkvptLk0jd/DnM5Sl7msHB6uJpi0BjByK95xFs7Qcskz7ao+4+jyJ0rNbaJA1kIzLNwuLqBvfRivY/DX+8sXR9FS+hYuoR2DhkEa058xqCJDhumGQBZu6zkD5AkSwizkyy1maRe/C5tGd2L+BsZ+fUnHwVobZBMQy37HGSoEiYFH2PNFlo+aW7JSF3/gc51jR+4jUS1KchCUEe1VKBxzq2zOfvIXHjA+TXS/UHHOBatDzNEqjvgC9cU9qqeAUV02qHs5H8BkLtxxFsP0ZC1wzupeRGbmZYLEEruUBXmISLpwN8BRKyNaSGP0Zm8kbpneWR1iYHOukzj9BnnoARpM+T1fWtqCorSoFEOWUvhnFWlMvqtpTn6zgs88L+erLAyaqG1Dv1oKp+MZjQIJK+82PxEmz33eE8GoaER0WPfhWhzuM0ENLA4xBWpVQfKqZVDjetM4IhhHvO0QN2DEa0hh7Q8qmjPCdXyKaRm72D9NhHUhbui5VhHwlywUwjM/YZspPXZYHKaQ6PV9Y51THUPiQWIrcyLkqK6dawm/oVkJm4gsz4RRTZOnWYOuDP5vTWYNthBDtJyPmzuQCLFxdkJOY0DGt9ls75JzAXxqXWq1ukAtc7jQ29jHDXcXofh6d58Lj3KSqm1Q49d0aYHrAjz0tRYTc4/IhX7HNz5MqvTIHzvTnEiZ5q+o+tS5Rqjt6EufzAFjUXQh0DqDn9Gglry/YykzgqACH63GvI3uf2Houu1inDi2C1T/09BBoPbe+zqwS2SNP3riM9cZMGB2drk4u/hLuHEG4fgBFvAgLuXohSPaiYVis8SUquNbdQDjSR28uN8jaZK+W5UHbjc3Oj9PAm7Y1f1AdlK4lElVszs4XEwfSbZSZxfdTwwZMItgzSg81ZUZyWWt6adYU/m16F9CqJ+ATSkzcfYWW/DbGj9iKYL1RDd6qHb1W6BmyIZycv0esze97YwTrlGqiBeINY5pH+5+Gn68+FbdRCrX5UTKsVrr5kJeCv70So66yICqceusFB+Ykrb5KYDpMa0YZyi/2krebyJNY//WsS1cnSxvJwA7gQfW6o6xQCB3rpO7G7vXV3n7E2VpC8fQG5hfulLeUJ1B5ArP8MCXkfDSgH6E7lA/IoRojOm4Hs1Cckph+SB7FO4upkndJFM/wScxo/+5vw17Xa8blbjahQnhgqplUKGyK8kh7pPoH4sZdE2ByhBy2/vkjieBfm/C3pX88r+KKcX4asQ7vf+zpy9z+l93K/d6456lxHU/q9Hz5v1xwlV307zzTHXnIge2bkJzDJ5ZcEgk1iLyOHziE69BWZJ/Z07KVczwLMlUUkhz+DueTexVVaYg+ep8GsS1x/T1vm+wS9QlUHP3UWfOQaGsF6hDuPItJ7WhZinOA5OHNhAtnp27BWuY4miRTPlYpr/2XY6gmRiGWQXxlHdvaOzLG65Y5z3Ck36gv3nKR/srGUFcVW1eO6nfzZJIjk4uZmroJ7ReWXp1HYNCvqBIn5s/TZ8dIWr0LHX/ST97CE1O13yDK/Sz87n0MpgCL1Cg4jwPUK+FqqdVrVqJhWG/SAFQtp+MIRBNqOSyWlYEObrHI7wXn4qbFLSI99Rr9OwrjJVZUpTPKas/dvIjX8iWswOQeP8+eHWul7tHI0QS2JN4n1VrOiSmRnJ8jd/wRWYrW0pTyhtkNknZ6SRAIj5GFBldoHERSSi0jd+E8w567TdaZByUlQ+f3+EEI95xHufYGug49O+famWJSdRcW06qCHyyogUNuG+PGvkYD1iqv9sJVpw1YlLzzlHlyTkCh6I711k/lFXpTyR6S1SPbep2QtzUlwf1lEBEIIHOhC7Nir9GcPfT8S0q0uiPBnk9VsLowidect5Nfn6N9ytriMUFSSFCJ9zyHQ3EsDB88fbk/Idw26hpwBxnUKsjOjyD4YlgiM8vB19JNXcFymWAyJLVbLtJpRMa02WKMKPgQae1Bz9g07pdMFLrzMaZrm7C1YyxO0hSxYCUVygcxSnz8uQeTZqc9hLk5s2gAu0NCO+JnXpb1J8ZetmbcgqCSmHMhuLo4jM/wmrLUHIjBu/xZHNMQ4kL3jCL03RZ/vUTEluBJXMV9EdnocSfIKrJR7rYRw5wCJ6UkYNXV03ngOfIuDmLLjqJhWE5xl5DOlwAg3WuMHabMV/OzMGDYuv0kW3uxD602bQu8vZFaRvPmuFHF2wx+pQbi9T1bXuSq8ZFZtp+ao/HoW6fEryEzedBVIrnca7TuDcAcXeOFFtNIOD8Jegy8Yp8HvBrn7fwlrwz08jYtN++s6EDvx96TfVzFHlqxmRVUlKqZVhAgKPTyceRTuPCYruo5l9sg1lhJ3c2PkLr8rvecl24lTRx8RfrAL2SRSoxfI5bxlW4gOLrcvSK4+d9TsoO/WfRrc/M45vOcRIAu1kDdlnjd97zJAf3eyuniaI9jE6a2D9PnHYXDeuny2B600ur48F8qDX27qiu0VJHne2OFYWExrWhA/9hpC3BLbyqGoC1FViYppNUHPiBGII3r4JQkJstMwy8Mr+OwimgsjyE5ekLk37o5JT5/9hkeBC0CbeZj8UM/dlpApXsxyI3LwDGrOftuuOboNb5uLR/PxpsfIKh5/n7QxQz+7iwTXJ6g9/4dkuXfQ9+S5Uw+K6RfQoRYyGcmIyk6PuR4L9/uKDT5NYsqxvqWNStWhYlpF+IJR+GvbEO45IQtPbsLIc5zpscvIzY6SVcc1R1mIHvdy8r9fJGFOkSjfQ/L2xxJ36kbgQAcJKgfxH4Qv4j4F4UrJgi7ynO/SFB3L5zDXFmSbE1w1K3b0K2Kxixp5GYmbJct85BfI3PuILp/z8XBWFBeQDnUcQ3ToaySuDXT4PMWiylpNqJhWBfRQkBgasQZZseaqScHGtl8KzkOQFcMFM5K3P7TFVCzYx7BIvwz/WsCQmqOJKz+DuTwj38UJzkwKtfWR2A+S8LfLd5Hvv1XoGPMkookb75LLu0lWFIlotO+0rO7/bcsWbwoKd03gaR22yrMT5Fnk3BbW6CJxVhSJafzMb0jlMCk842XLfA+iYloN0EPE5da45F3s5OswajkP3hnOBLLWppEZe0eKPvPKPM9BbglZXY9KuE6aQ5UWx8noca7qxHACQfzIK4gcOiMJAm4ZVK6QkPoCUVmESV75U5jzHNrlDs/zhvtfRmTgVfoiHo+9JDEsmnZWVGr00qb1CoJN3XTen7O7mHrcMN+LqJhWAbygUCzmxOKLDb4AP1mojtADaK7MIUsWaX6JhC+9SleRw6G2einJ6vEFyTJKIL88huzMsOTNu82dcuxnpPeMxEByIDpna20NtrgCKGaTEtqVmx+VltS8sOaI308i/hQi/c/SZwfofHg3TEqOHwHkV+aRvM5ewSaN9zgrSrwCrvXaRb/OHo2Xj39voWJaBbA3z3oUaulC9NBJCQVygoU3M3VbQoqKeU4bLe3YJjKj4LOQvn8LqfFNCjgHQmRF90mZOO7h7ws6d0l9FNhbZUM4Nzshx2VlNkp7Hkaa/vUcJXf/JFnInMxQ2uFFeGU/SF7B2hwSF/+TJFG4wXOnRqSWBrIXET5EgwldLykerlQF/u+ej32v9HflicOLPzkE6loRHfoq4ideF2vPVrYysOKQS73xyZ8jdf2nKKRWaGNJibeLfKSfrMIMGbpBemDP0oMbF/F6CHbPDUOmAwo5E4XkkrRFkegDp+/ugi3k9Dk8BUiWFhd34fbH5bEzgwqZFFnS82TVpmElF+nf4M/2oG3AB8/hTul1hDq4zGKPWP4snOWh95N1XsyuITN+gQbUPB32JkkayhNBLdPdhE0yepD8dS2oOfPbZO1tUvyZrMX8xhJyD64i++Aa6Q6J62bZTo8KJ+vTQ5lfGEFu6hIJ1QPJrnIj0Mg9qb6DYFOPzPvK8WwFnrcNcHrrKNIj78NcnZFiLI6QaHK6LXdq5doFHCZV9LC7y/G6PM2SnRlBZuKaxP46wSIb7jxM1vlxcvtb6LyRdS7z21s890rFUDHdbcjQCNQ2IjpwDsED7aWN5eGVdm7MZq7N21fu8Y3AzaF/l3P9Ezc/oof7bmljeeR795/+25qjDu1UHhVOGrASS9InSnrNu+CvPYCaYy+A+82zUbsTp+JJwYtqRqgG2ftXkbzxJln67HE4QJasQQLK/fUjA6+JJVu0ODRO5053GxXT3ULCYIpiWYU6T9rhPuRWl8eeVJQK+Vf/Cvm1GRIQFq7KSwiX2LPI5UwP/4IEbbOsKHqoSdS4X1Go+xRZSfSdtpUV5ZOpA25JnX3gnt5qcNO/pi5xjUPtJ+HjUKmCcxZVVcPTE2Rx5lenyeu4jtzCJKykS86+4Uegvh3x468i1NJrn/OtegVKxVAx3SXsBnUFRPpeQqT/K/CFSAyc5vxES/PkBt9G4vJ/lLAoDilyfP+W4fm4iGRCpUfelLqjXMB5s8Ii4YNnpRAJW0zbKeDMLisfZ3rkQ2QnPy9tdcDgxZswielJcvc5I6uBfte9Nmq1U8ysS1vs7NTtRyge3YyaU9yOu4+OW24RZZdRMd1FjFAQkYPHZHXatjTLI9ba/dvIzU3IggNXHtpR+J+3LFldT935RFqNuGH3ez8hBVp82605yvOHqSXk5seRGruMzXrNB1sPIU7uPrv9noeexkJ2Fanhd0lQr5U2lofvFyPGBaRPyoAsSQyaFbWrqJg+cdjMtOTm51jBUMcggs09ZGQ6r8jzQlDm7ufIzvIcJq/y7vQMIf/7AXI3uYDzuyRo8/Sdy7v6DGfkhNv7yUoasjuZbsftLHABlzRZZvfpsz+QsCE3gg2tiBw6QS5/L4xIg/09Xb5rNcPtuDncLTtxSaY5uGi3Y0IE3S+86s/THNGBr0i6qRaP3l1UTJ80JKScCx840IfI0BsINB6EIcWfnQXSSq9JZajc9C16L4crbW+hZ1PoQfUFYtLaJD38Q+RXJ+khp4faSSDJ5fbHm8jd/hpCncdlNZr7/W8Jcd+jIuDJz38oouoGW2jcwTN86EWEup6iLfw9t/jZu4204zbofM9Ih9nMg2FYSfc6s6H2w6UeYWSZe3MM2TOomD5pWJDIcuOiz3Eu2lHXSg+R82VgN5f7NJlz9GBt8Co+WaYuwlsZ6N8nQS1mksgv30d2egS5xSkSSKe5U5+0M4n2n5MarL6Aj77iVr+j/dkFGkBy09fpuDkras4W83LQueP55kjvOSnAwj97tkSd3Ad0/IUMzMW7SN58h4TV3TL31zSSoPYj2H7czorigURX9ncFFdPdoMitfA+SRfGcrIa7wSKWmbhBD9UDFHPucZ+VhudmC+kcMpO3JOuKy/45wdMWPPfLBZyNWJR8/+0lEnARZGuNhXwYuZlRSSZwwgiEEO09Tu7+cbJUOe5ypwebHYS/Op26/PIEkpd/TH9O0fE4T5lwvdtAfRvCB58hQT0qQuxZy9zjaAbUE4Mt0ix5cjXkCp9F/MQ3EDv8tL3w5GKZJq6+icSVHyG/NCKus9QBfUKQvUlPqw+F3Br8ERKs/mclJKmsZUybOAspn9yAlTFRTK2VMpM4CHQL4kbWlQ85+nw6P1zcpPsY/FHndteSFZVOIL+yRFqSpL8vyfdxO7dVCZ0r/t5Fy5LVfcmKarDbPbvNq3PDvUJqGZnxT0l7yVpnD0Z5oqhl+gRhMeSFgujAi7JY42NhcnhAJIA9ya7uLWTvcx5+xvVh2hHk83ySFZVll3tlhgwf5wZwLFzB5l4aKH5Ncva3E/fJ4sBJAJwVlbl3kSzzWRqLNmn619iN2LHXEJSmf87xsdUNn8eQff0TM8g+uEEv8gpcLHNpx905KN0ZjJoOCTGjf4D2bO3cK1tDxfRJwfe1RfoQOyALBtwT3Q0u/swLEOb8OAo8V1okYXuCVukvoe9dtIokZstIj16GuTxb2lGe4IEO1Jx4if7kueDSxq3gC5LVHicLc4Os8nsSe8mC6gav7Nec/hpCLX2e1xIxqI0CDSSXkLr9vssgxu81JEwq2NqPSO9L8Nc20zXbfjtu5fFQN/9JwE82vfy1HXSzP4Pap74j3T7deuHnZseQ+PynyNz9GNbaFAkLCWklCpo8LiVB5D8KmRWpqRnuPGJvLANbzxyd8EUWj5VatacnHvu7s4VGikLWJf+bRV8AgZomscAc4c8md9icn5CgdxEUTo7YjfNWAXgRr2iacj4jh06LVyNtvx/CLjzDscF8rrjrbH5hnP7O94zaS08KPdNPAhHTLFkOAwj3nJNUwL+tFP+rFEk/LBKDKSSv/pQejCka8lhYtmPmbQd6UP1hWBsL9H2+j9zMdTocFxeaHl4W/kjvC1LAWaofbbV4NMEuLGdhpW5zB9WrJJB8LsubnHaJuhoEO48j0v8CfJEofU2Pxl5K4ZmYVOQyF0alzuymLWUa2mzLvLmPfvpioFZX/0mhYvoEEN0p+BEl6yI6cB7c2dMJznDKr8ySdTVGD9FtidnkSvi7bWHwI8nHkZ2bRGrsc7I4nWuOsvCHu4cQ6zttL1ht83nmFNXCxgzMRXL3Z8ZhkevvRqRzCPHjHMjeKFMrnoYNztQiElfeRGbyRmljedhq9dc1I9h2REKlfBxRsZ123MpjoWK6o5CKFMnFDYRh1HYi1HUM4Q6Ow3Se++SFhszUTWQe3EAhNU+WGFl1UmZvtyxTG17Z9/lCyM2OIH3nHXLhl0t7ykBiGqxvkYByfrDtNhsc/7jFBSFOdMhtSKGX9Aint7qnmAYa26VEXfBAXykrahufvcv4/H4ZUHmVPjdDg2uGs6J4QvhhxDIPx+U+i/Q9TYM2W+bl36tUHhXTnUSyndLwxxsR6j6PUMthKXrMD4gT/LCkbrxHD89Fujo8X1jasdsYftL0GInpdSRv/ABWwj2YnN/PnVZjx98gK+kInYdtlInjcYROGYvpxqW/gbn8wN7ugKTqNrTTOT+HQHM/fSz3tNr6VMOuYpBlzwuAS+yp0IvburjVeiUiPScQP/Eq/JE9YJl7CBXTnYTdW6uAwIEe1Jx6jf7sJHFkIS1vZbKQmivTJFgcpM+LThzTWS3xgjxva6AoFe5nkX0wgtwSiZpLQDln58SPvogwWai2ZbhVf5/nYSNkqXOo2FUSlbtSJNsxI4ssY3+kBrGh5+ysKProHS8Os2PwvcLf3URufgzJ6+8gz/VsXQjUNSHUdpgGksMw4gdKg4laqDuNiumO8cXDG0SIU0ePvyytit2QKvqzZH1wozx2ow2eK62u4Guu7m+lkkjfu05u5whtcBHTKPcrOoVQxwAZWPV0PDSQbMXdZvOcLDReiMov36XPvUOCyhW0nK1Nrm/K6a2RnpMkxDWkrzyIedPV58EBfkPmjBPXfibxvm5lEWURrrFT6uRywD80TOqJoGK6U/DEP7npfrqZg819CLYcopvcvTxd9sEwkjffs3s7Oc8E7CoSolUoSHuRzN3PSEtdBIpEkMN6Qm3HED3ybfjZSpKao1u0EvluNfJIj32K5K0PpD22E+wB+OMNcu5DPU9LHKZnYy9pIPD5Y9KFQFrKLN0TK52vgxNGrA7xk68i0veUHLJHp4w9hYrpDsET/0Ywisihs2QhHLVjBB1qlrKVwVZXbmYY6fFP7RX8ak0HJJEq0kPM83e8IGKSq+8YUM4WFb2fQ8Jix1+Dn9xP+8nempiyQLKFmZsbQXbyioQKFZ26qNJnSyeA5oP02V8lC62DLDR2dbco5LsKT7EEyBLPwNqYRnbqJrLTo3QqnS1zacfdfVyyovyxNvvek3ljLx6/N1Ax3SlIM4zIAXqQv45wz6nSxvKwu1pIrMKcI/f1wWW65+mmN8oFZ1cJxTyKZD2zq50aZ1FzX13noi41pzaf5tgUjmoworDWZmDO07laui+ZYm6EmrpR9/R3pEqXGKUe1hJZjPSZSI1dRGqEBt1NUkw5Gy1EA1mw5RjdThE6frbM1UTdKTQDaodgSyDY2o/6Z38P4Y5BsRScMJenxW1NDb9DAjViWxFVnbXDlhJn3XBxkQ16WA/SQ9tb2lcGzs6h95sL07CSG+SiLpKLSsq2lWOU9ZgsiYWdbiqREvT5TkiqZYijEMaQX54hQSErmsOFqvr8OsEHb6BIXoyfLU/yeqQttFMmHZ3zYo4sdzpWrjpmrU7T+dCsqJ1Cz2qlYReWhIILfYTaBqWtBq9qO0KWAuecJ6//AubiBA1v9JCze1zNsJCS5cMLZqlbP5eao9xaxWkOj0XXCNdImbjwwafoZzpH21ldpn/PIss4eYsLZt+xXX2nz+ZA9toDCHX8bdO/LReu3m1kMTJIlvkD5OZu0wAxSoPTqr3PAY4giZ96DcGmPjpvnCzCprlapzuBimmF4Qe1kE2Q1fAUYideJ6+0vrSnDCS80gt/ZQqZUS4EzF1HeQXfI1ZTPo1CYl6svuz0mMz7OsEixjVHo70nRYi3DlvEYZkKMWeu02eTu7865+ryMtzaJH7sZbLk6rytJTzO0u3B5Q0T19+j49+kJXasDuGuAYTah6SrAwzyCLyaYlvlqJhWGF4g4RTKMGeh9JIbFnZewecFhNzsXWQf3IG1QS4oiZNtfVS5ZVqiWLRo8EiTkN60F84yzmmeXKMzUN8q8Y/BtuMwYmStc8TDlkKlSE3o94q5VeTmR5Aeu7SphRY80IVw9wkEmwdogGsofTZPonoPblvDc8Xp0ffp/hkWr8ApVIoHMV78DHeflC6yHK/rFlalbB0V0wrDNUqNeLOkjUa6eK7UOQ+/YOaQGruC9L2r5HxxZaXSDo/A35d1LffgGtJ33qUH3KXXO72ZM5PYOor0viItNooFDm3a4oPN54rGndzcGBLX3kZ+bcHe7oC092jtR6jrDH12J+logsTUi4HsdOAcc5tJIHv3QxLTWyhwj/1NismED51G7MhLNNDXbvmUK+6omFYKtpTIsuSKUDXnfguBpkOlHeXh/Gruc5S9Rw/E1CXaQsqwG/VKtwNZ0RwQzyLKhVlyM2ObihoHlIc6hqTmpjzUW15d95OFFpO+WLnJCxJ7KWLuYuly7GXs6IsSMiSFvLy8sv/FQDY7Su4+d5DdpCV2YzvCnUMIth6W82Cn93pxMKleVEwrBi+qWGR5dSB+6nUEyK10g1fBzcX7JEA3kF++R1tITL0yV/oF/H1l/jJFQrYkXVQLm+SNs9tpxOtlKmRbWiZZUWE6j+t0HrkTAIdKPXB1YTlpItp7WuJ+jWA9CRJPF2xL0XcPPn5/ALn5cbsd99q867H76ZyHWg4h3HMagYZOGsi2OMWiOKJiWino5vYFoiSi3YgNnkegzj2mMkdCmhr+FFbCpfqSR+BupP5YGMEDbQi4RS4QXBWLO26ym1qRaQ26g4uFLNKjn9LrIhlbLoHsEnvZKbGXgbbj8HHsZYFjL70opnZWVH7lPrn778mfRY6ocDkWI94oyRPhrlO2Za5aWlFUTCsBV5InKyHUeZpcqRMSimMEnVx2utnJgjDnbiN156dk0XHqKMf+lXZ7CbbqrAxZ44cQ6n5K2la71Wrlp5dTIrP3PiVLapaOmwu5bO8WlEyxoo8s0xvITn4u5fmcs6JowAuS6Lf2IX78awjUttH3Z0XxoJjyDUOCamdFzSEzeQ1Z7uLqNs0RqUHk4AmZZjFizTQIVnFiiAdRMa0ARSsnYhoZeBHhg+fsB9xBJDgVs5DPgitDpYd/TG7qKv0u39QeVFMyb3jujVfnI/1fg7+GxJTOQ1nIYuIK/fm1GWTG2JJ6QO+tQBiY1HoNIM/prVxRapnTW91bYnM2VM3ZN2gQ6KGBjc67F7W0hLQ2IUFNj15C+u5VGhyc50F5MZSTKzj+OXCglwY+jjTx8MFXGSqmlYCeRyMWQ6z3JMKbNcpLrJBF+glZEffIgmIrtbTDg7BHyYYQ92WKDT4FI1pT2vMwXKuAY1G5MR7PrfIAVFFIk/Mb87Kyn53jOWhneP4w3DkgizH++na6fiZdBwdrttoxQnQdDGQfXEJu6iKd23U6t+4r+8HWfsTPfocs8yaZdlF/vzKomG4HvgnJxedK8sGWQSk155p/TurDc6SpOx8hNz9BP7NV5kn/nv7jQi4RBBrIxW8boFev/OwEt2PJ3L+OzMRV+wGupEXEk6+cFZWkc3v7XZhzY/QZzn2q2ELj6xTuOk7X7Cj9vkFvdV68qWpkEc1XyooapkF6jM6DS4gawU0R48deoXPQZp87T96D1YeK6Xb4pZt7DNGh1+Gva6d72yFPmuAgd2t9DumRd5BfnCAPldwsEgHPwS47dxCgQSQ69E07EJ6FlHPwHWBLNHP3Ar0+FQGQHPGKwU3/uHh0Atnx9yXVksOknNp7MJyzz609okOvwAiQRe1144z0ML82h40r79BAfb+0sTw8kET7TpGo9sCuM6syUAn0LG4DWTgtFBBuJzd36Dn4Yw10UzuM8mQlmUszskiQX5pAIbPOTzTt8KJVQAduFe2Y2lNfJzHtKR1LeazEqsSgmgv36O/z9omryFL+l6HPp8GqmE9I7GV67DIJqltFKZ8USOGYU39DN3zh2tJ2D0Ln0u4gu4TUjR/BnB+h80CuvtygD8Pz2v5ILcKHztu1Euh/m00NKJujYrplimLdIBCXxnGcc+4+Z2ghOztGru5NcsOW6GZ3j8esXkoPKFmWXMU9fuxFKfXmhrk6i/Tdz2XRqZjjYPEdMgNZoP2GiGny9ocyP+0kKPxettBC7f0Itg7CH+daq/y9HN5f1dBxGySmyVWyzHma4w5Z6Tx36hKUTx6RWOYDz9Hf6fe9WvylilAx3Qr00LGby3F70UGyzFoGyWWP0vPpcjoti1zcT5AZ+9g2zDgcyotwkQyjIFMbwY4T5OofkHAjNzh/PPH53yC/Pr2zd5zEXsalvUdm7B1Ya9M0aLkvLPlrmsm6fh2hjiN25X6vzp0SPJbwFGqWB5PhT1wtc67kFaaBJNI9RANJhH6v0p7C/kPFdKvQqB+gBzF+4uvkLvbRzcjhUOVvSC5EwV0lc9O3yAUbta0lL86VEmxhc6GNyMEzUjjEF6ZBxOFY2DLiB9qcH0dm4iK4EIrbedo2PJjRdytkVpFfJC9gehi55Rn7fDvgj9WTdfaMFGCBdDfwsKiwp0SDNGeDpbhWAvcRc7HM/TUNZAj0ItxzTqIaxNXfKa9hH6BiulXonuM5w9ozryHU6p6Hz3nTmYkb9IBPopBm19O71g8fty8QIwF6WgLA3axxXrXnFE9zaQIWWaXcjI+LdOy4YNFXKuTTSI1covN+k/TEWSA4xTTcNSjxl/4YWdnbKg+4y3CthABZ5jM3kb71ppRH5EVPNwL1nYif+QOyzE/R9Upu+n7FGRXTx4X76PgKCLQeRajzFAINbWKducGWWeLKD5Ffm5Lf9SS8uFNIw4jWIdh0WCowcUk9N120NpaRvPE2sg9ukejmSwbpzlt+bDkXLQvZux8jSxax9Jl3ct/pS3EERqjzGGKnvw0j3mRPDbhYs9WNvZjEmXXSQXb2bml7ebhTQUws80OsxaVrpGwFFdPHhIs/szHGBSPCPWdFXBzDoXhu1cxKmbjkzZ9LUDkvkHgStlg4HKq2FaEuO6yGCw87iSNPB+TXF5C6+Y7MmT7RDgKcFWUVYc7ekKwoDhlyK1zNcKxs/PQbdk0FbmviyYWoEuTuF3IppMc+Q2bqFh2K87H80jJvI8u8rtm+l9XV3xIqpo8Lu7nkqsb6n0K09xSdQee5T66glJ2flMo+Flul+QL9LqdQem/45+eRi2OEO44ifvxVuLZiISHi1WRevefGd4XkCj2kcTpunpN8QvApprubawAkrr4Dc/GBvd2BQEMrYnQ9uVgLN5+TEdOj8OImp+6mh98ky/wj0ka6cJsIZKjtJGLHf4uMgwMyPeNdy3z3UDF9VPhmLOToQatFoLFPikUEmjpJF51PIZfZy4xdRG7mDt3cSZIYukElF917Ysr1BoxgHMG2fkR6T4tF7gg9iJzhxVaRlZwno5bc5ifeQcB239kqTVz7IXIL4/Q9WFTKiwQ3puNpi3DPGQTbj9EWep9XV/b5Hitwb7EH5BWMIPtgePOsqNbDiB/7KlnmB+j3+TzRNeMU2wq8+PrL1ImU/du7IVgqpo8MzxkmYdS2kJt7FoEDJTfXxcrkOMfkjV8gO3XN8/NRbO0YsQMINR+SLgJcNd+JIgkWL7ilRj+jBym1O3cZD3L+qIhp8ur3xUJma83N4uIqSpHBVxEdeEXeV/H6AU8SOkwe/82lWWxcf0+iSdwItfQgfvQ5uq+b6FrTvU7XjbsRVOIFk/7M0ivPP5Og8pfbg/hu/1HT3jyySkMPFq92xs/8Jmqf/c/I1X1Z+go5wUKaHr2Axe//C7IObtJNRK6TKKrztEBVwqJCVkWw6SCiR76Guud/FzUnXyvtfBgWLA6BWvz+H2P94vfJ3V+Qf+OJuvhfQqyiXAINr32Xvvs/ROTg8dJc78PIPC+JTuLaT7H0V/+SrqF79fqqhq8b142obSWrcwhNb3wXtWe+RQMbj2xlRnV6PzeCTI28i/zSJP1YQVkwLVjphPQ6y07foufhhjwHvFC4l1AxfRR48YVvLquAhq//IzR+4x8h0NDuap1lJq8jef0trPz038i8nV3uzIPwQ2mmEOl7Fg3f/K8RO/yUaygYr+DnFiaw+BffI4vwR/Zx72JMLVuX3E4mduQ1xE9/G/XP/Y4U+nByE3h+MT38IRb/8n9EbuY2CeoivZcEyKtuBd+3dP+2/P4/R/0L/7m0LHEsk7hDcGorZ2cl73yCJA1Uict/RvdUqSi3TJN52GX7ErvhgHkMHuGzZFj5EWgeQLDlMAKNnTA2yfrJTJCY3vkIBXPD22eZRMQX4OpQ7SSkZ+nY20o7ypNbmsbGtffEveayeLv9nLD1w3O9udmrUj+WCym75aFzKxN/QxdiJ38NweY+OyvKw7GX0nqcPCquCZG5f2vTqIadQGoBxBsQP/YCas58kwbmlyXzTBoq7qHIARXTzWC7ndw/bk0cHXoZofZSx1GnrB92c1PryE3fRG7qOv2c9647IyFCnDp6BKGuk1L/0rHMHluwVh7m4l2kbv5EwsDsylC7rab0+UaArskafbcJZMjVNJdd5g/p/YGaA1K4JtjaW7rO3rWceIGUFw9zD24iPfoxuInjExcwGZCDdP8ckEyzSN8z8HMImsWD1N5xjFVMN4UudoEesNp2chO/Kav4bvDIz4U9crO3YS4My+9yURAvwlYNi2m492lEep8lS9PlOOgB5eD4/OIIMsM/RCGxQO+vnhCjosW1ZBNIj19Bdna8tLU8XDyaw954OsMXqXUcOD0BCSmXesw+4M4O79I5WKZLtXuWNicJRPvIw6ltFS9/L61FqZi6UczRjZchq7RBWjfzKnag1r1hnMlu7uW3JCzFo1FQf4uMA0FEDx5FpPsIWRfOc21WJon0vavkTo6L4SMPShXBJeo4gSIz9guy0i7Sd3SJvWRLilzTUMcJxI5+A0a0ljyMChe0fsIUs0m6J2eQmbwp9+iuwRWqpD4DSc/e8fAFFVMX7BHcIiHtQ6jzOIIH2iVjpCzs5uZNcSWT139WmjNk8fGimpJocCV9ssq4VxCXGOQye9IauRx07NxyOT3+KVnko/Q+ntaosluLLDSeK+XIitzsLeRXOCvKqQwiXTN62EPtQySmr4il6vX4SPYyODqBs6L4GtkDyZMfHGiYolNL91GVeCyVRMXUDbrffAghevh5xAZfJHfJYb6QYOGVHu7zo8iM/FwK9drZTh48xZyHn0+JkEYG30CgvoesUnLxef6xDFwco5BcQmb0bRErXsF/0ivGjwQPeDka8BZmkBq5KAVo3OB89fiRZ8gb4aLfpY0ehWNoOcU0dfNNZCYu0f3qnMCgbA0VUxd4FduINyPcfRzhziESCOeFJC6zl564geyD23TTrto3q1dHX37IaHDgAP34sZftxQIHIWXyqwvSe8iUqlhr9N5qnd+g72SEyM29h8Tn/x/yS+N0rM6+pmRFNbQj3PscWakn6K1kncqinAehe5Et8/zafaRH3sfqe/8BqbFLshjH86gcurS91xoKqQ2ZStmv+L97Pva90t+VL0OCYkTqZK60/rnfRqT3DN2PDuJI72VLNPH5T8mN+hjW6j3SE7bkqtA62xR28fnlQ83pb6H+hd8TN1faVzvA83Cp4QtkmX4kkQxug86uwnOhdByFzDJZp9cldjbUcZy+L7udZcSft9F5KFp+WOkN5O5ftDe7nIuqhnuW5ROw1heRnRoWY4E9CJ5PtVIsiCtbfhX49zMJOjd+56kwopBJ2iUpxy9IHK/t8ewNm06D9stBVhkvOET6nkPs9HdQ/8xvINx1tLTzYXgFn0NPFn/wP8i8oW2d0QPnuZuELdIMfDSIBJuPo+GV/wINL/8DOhQSR5djWf75/4H1j/8Muelr9GByXG11i42kNBazaPzmf4vaZ34fke6jMBzKKIo1tzKH9U//DIt//s9onOEwH+fpnuqGB0n2mOg/EtFAfTcNlFzDlQe/7XkSLIqcblz71G+g7vnfK219mPzqPDJTd7Dy1p8gcekv6LzXVP398qioZeoEWWfRwRdR98zvkLAcdM12MpdnkJm4guSV79Pf79ON6s3KUAwPIoG6NsROvIHY4PMItfU5Hgu7dFxJf+PiD5C6/Y78rieOuxRuwEVrjHDctdYAeyNsaXHlq8zUDYDE1T5OHly8do3p+/IUjBgLafKmFpFfui+LptzqZTuv/Mo08olVOpdDiA29UPq8h9nLluneOIpKQyOlEW2Q6uvRQydp9HapkETkZsalqruVIqvMy7CPQjrDFedrjr9MD0a/vd0BFlJ2F82FcRQ2ZmmDNwqD8DSELxBFdvITpId/ggJb047Yq8+Bpl7UnPt9Glh7yVrlVEjvZkVxaxcuicjxpz4aTCr14oHJ050KtomK6a/AudxspUQHXkKo84T83XGOrFCgET6H7PRVZMbepYcyTe/16M3E7h+5vv66TgTbjiLYQtZ4rL60szwmWSOJa29J62op27YLoTZbgy00QxZMzMVpZO7fhrk6V9pXDu5k2iqLcYHGLqlL65lDLYt9/Dvy4n97n8JHr3wZrllKbl306CvSykKyX5zcXBJSrg5lzlwnC+0zeyXTq2JayJPnmyMR7ZdK+oG6VlnNLgu5yJw6yi5i6rqdoCDViDw2tcE9qfIbq0iNXYQ5f6+0tTxcDDvadwbBpkPwhWpLwuFpRVUqjIrpr0J64I/X2umEzd2ljeXJry9KJZzc0oy4x15+tngBHwU/IofOIDb4DAmGg5ASHPbFSQnmwl0SodsSFmbPE3vrduKFpEJmHalrf4Xs/culreVhV98XiiDcfRaRwa+RxxKBFDtWlBIqpl/Ac2BkmQUae8S9ZyF1qnspFLmS+TSSN38ii05ikXpy0YlUtGiSGAboeJsR7jyCUMeA69wX5+BnyTXm2pSFzBKdOpOVifZ47PhJINmbMGdvg/tUccylY1YUXVsWVI45jh15kbyXGhlUFOULVEy/gGPwrDTCB59GdIjzsRvZHCnt/FW4LJ8Fc2Ucqat/ivzyXfiCbJlxsLrH4GwnK0WWVhSBlsPk5vchyB1XXTKY2BJN3vlYcvHh575WpR1ehK6jlU4htzCF9MR1bNbeg5vPxY88KzHIey23XNkeKqYligWy0Ao+RDqHyMU/4zxfSBTNnBT0yE6Py4NolxLzolVKsHtvFSV1NH7ydXuBxUUd2XLLr8/DnL5Gg8gEvZUHkSoN0n8U6Fg5TZinLBKf/7V4G27we/11bQgf4hJ9AzQQJekcqoWqqJgS7OZa5KWGYcRaEWobRLi9nx4aZze3wNWHJq4gO3WLhJWs1KJHhfQL6PtzW5L48a8hUO9e/JlTD825uzAXR+wyewaX2fOgRf4FLKZ07bmTavr223Rck5KEYU8iP4xMh9Q0Idr/PEIdRwGOOSXrVlFUTIsFce8DDZ2InvwNBJpLQupinXFPofSdHyMz/i49XCF6q5ctM/ov5CPLtNnuj8QVklzgTpeJm++RRb5CLn5p4x6gkEvCWp9BbmYYubkJuiecrU2eL40deQ6RnhOiueVlV9lvqJjy00BuOrciqTn5dQQPdLoKKc+pcRvj3NwY8mvz9ntd3l/VFExZted54nDHCTsHX1ILyyCDDpewu4P06IeSybKnGqLxnLmZQGaSPI7Jq/Sj80q9Qeco2NQlhcJD7adJXGtZjWmPyup+RsWU4IX8IIlp7amv0J/ubi6v+KYnbpIVs+754G3OUefc6NiJ3yJBfa60tTxFTlDgle+528jeu4Biltxbw70Plpfg8bCIHDL3PkV6nI6PY4adMOxiHsGWQUSPfAv+2hbxbnjAUfYv+1tMuVFeMIDwofMIdZ4Cd27EJulw2QfXpeumxcVMuOCFJ8OhStBX98fiiPYel77pbuTXFpC48b7MKVZthb3t4AvRpYxI9S+TvA7uFbVZvVP2YmrPkjdDA7Eapcq+FlOOE/QFw9LgK9x1QlbwpQp4GXgOTcqwzdxB5u4F282t1lJzm8EWFB07VwwKtvRKMZNAXVNpZxmKRQnST974OXJLk6TAdI68PIiUg0cIElSuemUuT5B1ehn5lZnSzvL46ZxF+89JOJkRPWAPMGqd7lv2uWXKnmotYoPPItx9pLSxPIVMolQAeQIF7qXukaIe5eBBpGAmEOo6h+jQ6ySqJKROtVrJ5OJK+hYXFb71V8gv3SXdidnis9dgMaTDshLzSF57iwbOEXu7A9zu21/bSF7NGTmXPj/PFWhW1H5lf4opT5Jyo7yaFgRbj0qPo0Bdc2lnedj9S93+AOb8GP0+C6mXLRDySekchLuOkGX1tKxO20ryMEXLogHkgXT0zK9xhlC6JKR7zc+34UI1XLAm9+AaHfMwzJU55/lTn0GnIiir+nweOXGD8/2V/ck+FVPOdkoicOAgwj1PI9DYXRIUB8h1Yzc3dZ3cXBbTAAmJZ7WkSBrgI6sqiHDHYUQOHnNPUOCqWA+G6TVKosKVpfamiNrQsRlhujfyktXGkQs5GkS486obXFw6NnAe/jCHlfFAoxOo+5F9KaY8rcVJK5Hu44gffcE9B5/TRtcWkJsbt4t6pLkth0fdXDpwXnX2k0UujfIOcEwtL6I53wZslaXHPkL23mfs14olttfh6WAuNcDz44mrb0mbDze4FTQPzKGDz8jArFlR+5N9Jqbs3uZFEPyxNrLMjpBlepyMEecq+pyDz9ZJ9sFNcvVn6Ne5yjqv+Hvx1NHxW6ZU0o8ff90uJ8fi6LCYxDn45uosubzXpQC0HPNenCv9VXhwCQTIOr2PzNjHkh0l0xsOFicvYnLjvejACwi1HgbImpcRW9lX7C8xLXKBkjRZEjUIdT+FYNsgAvUtrtYWu7mZ8ctIj1+kX896+4yxFtAzLgkKHNLDCQou8Hxh+t41mMskJlyN3iHFcs9BA4bPiMNKrcCcuyVTOxwa5nb8/ngDak68gnD3MTFKVUv3H/tLTMUyK9qW2cnXEGxhy4z8ORfLLL86R1YpCco8r+zyQ+ZcTamqKZoynRdoGkCIK+k3dcGIOFvkDFuj6dvvwkpwFfr9lH/Ofj4/GhbdA6tIj36CzL0r5L47nwOxTps66dweQbD9JHk7Ub6BaM8+GYCU/SSmdFPzfV0MkGXWQ2L6VRIU9+LPkjrKc6VknVhcTR4svN6cMywWcjRw+KWKPtdr5Xlix5qlPLeaN+nYR5EeeQ+F1BIJMQtMaf8+gRfqioWMiKl4JmZGzk057Hqw9VJJKtL3vCSAFFlM94s1r+wjMeXcaV8egYZuhFoHpVmeP1pb2lme3NxdbFz9OfIb8/YirZcho8oI1iA29JzME7shoUFz9yQTKL88ScLKNUu5vfF+U1MebILknUzRuRhGbnFSEjfcCLUeQs3Zb5D3076/jHll/4gpLyRxdlOo6yS9yDKraXS2zOi90gufLbPhD8hCXXWdDqhq2JJiqzQYk2Z5PKe3Weoodx3lws9czKWQXbetK6mkv8+QxTY/irl1GlTukYV6UaZ93OA5eK6HG2zut7OieJKa45qVPc8+skxZD+KIDr2ASO9Z0kVnYeTqSJKjPX8Hufufoshxhl61zDimtpCUGpycoMB1S3mxxA0rYSco5BbGbQ3dZwbpQ5Cm5tdmsHH5J2Kxu8Hxyjx9FOo4iUDzYTp3vBrl3Ww55dHZ+2JKVgGv4HOpOX9Dj/Q44sUXN4XgudLUyGfIzY7ST1l6K897eVNRZMouX0So/Yj0LvLXcA65w2WnN/Oxc8psbuoSrPU5Ms482o6lUtCgy1McnE6cm/wM5sKYeCqO9U75/cEQDdinEe17in43TPefzpvuB/aFmEIC1Q+QoBxFqLVU1MPJMiW3WFJH73yI3Pw4WSUkJF5070v45BKHpSp8dOA5+KPOCQpFOvY8x5XOjpBo3EEhvWpb5PtZTHkQ5RTTXBbmEp2X+VH6c8pejHJAGu/1HBcPyAizF0DmvSxcqajuZfa8mLJlxnF/oY4TiJ34Ovy1LtWRCDsc6gEy4+8jvzRBOhKnp8O784W+UIwscnI72w7TYNILH4fsOFGwkL57FemxizQGpffDUPvIsDHPt0Hm/nUkrr0DK0EDjRM0+AbqWuSc89QKr/LzVIsM7MqeZc8/Lj56CowAWWbthxE9fN7VMmPlzS2SkE7dIUG9T8KasJ8gT7r4RXp2TRjReoT7nqWHuk+iF9xKDHJZwezUNXmxa+rbj4tOTrCa+sPSeI/Ta/OrMy7WKfkDoYgkR3BWVKDpEJDXSP69zt4XU3+ABCWOcOshRHuOSvaTE+zmZu7fQWr8ClmzHrfM2CQ3eXqjEfFTr0vNTTc408tKrsCcuSZ95FEk0SX3VilBAwt7KfmVKeQmL0qq6WZhUmydxk9/E+H2o+Idyfy1smfZu2JKdy7n0Rs1zYid+nsI0g0t1oUT5OIWORxq8jNk735ElhrHVnpcTILkbjY2ITbwlPTCd8NcmETi6ttSZg+GWlCOGEUUzA0kRz6jgZcGHRe45gN3uuVeUYGmftJjsvQLbM2qqu5F9rBlSjdswUSgtgnxk9+SzBQ3uMyaufQAuZnryC8M0wb6fa+6uexO+sgr5Xm7lkNSas+16yhPbyxMIHn9Z9ITn3scKeXxGQa592mkx2nQvX+dBmyT7rPyg49dAIWuQfsQwt2nydCP0aWh9yt7kr3t5ougNEqtyU2LepCQ8sIC1y2VbCfvLuCTVc3ZXj5Eel9B+NBLJAAugwJb8IU88kvjSN95q5Sg4F6Wb1/jC5OAFpCbukyvq7ASyyi4dDJlQh2DiJ/6Bvy1rTRI0wY1TPcke/OJIXHgOzbUfowsgrOSlcILAuWhO5ssOXPxLrm5fyNuru3ee1lNC2RUByXOMXLwtKulWcilpB0L1yCwkgu2pbWvQ6E2gQcZvmWyq3TPjCM1/KldUcqFQGMHIn3nICUPuS00B/HzJKqyp9iTYiqulK+IcP/LiPR/hSxNl7lPmVvNwVwYQer6X9purtctM/ruPF8XOXQC4a4h+tFZHK3UBlKjF6UtidwNHh5Dnhh8jgwfzJUpbFz+MYnqlL3dgUDtAUQ6B2WqSdpCF7lgirr7e429aZnSzW6EQoj2npC2HGylOWGlE0iNfY7s9Fhpi4fh1FEriWDLYennHqjrcBVShitCpe/8CLnZa/AF4/R+DYfaFBqsODOM027TIz8jMR2TDClexHSCOxpwmFS0/zm6PUPsPCh7jD0mpux/5WGQKxVs6kO4Y4D+7HQVlEJmA+nRj6VFhc9g0fXwKeEn1Moh1NqP2JGvihXED74TbJWaS/eRu38Z1toDEoiw6/uVL+DROohCNkkezW0aiIbFOi1whX0HuKgOT7lEDp6Fj7OieCpFXH2dQN0r7K0nh/Pw8ykEm8kyO/7r8Nd3uwopU0ivkJhyW1+yzEJkmXF1KI/CcYysp1wGLn70GYkxdYPbsaTvXicLK0nnTR/qx4W9fR57MpM3kLxzge4lsk4d4PuKq3VJmFTjIZnDL1opuWeVvcEeE1NWE4tu2l4Sk5cRqOX2zc6TgCZX0Z8eRX6JrIr0um0tuLy/eqHjLuSkunuo/SSCrdyOpU1Cc9zITl1HeuwTFEyT7gR17x8bHqjJ3ecuppnxD2Ft8AKeg3UqBVDCCB7oRvToq9KAD9wWmu9ZZU+wh8SUbkouSGJESEwOITp4niwz91JzvIKdvnsF+fVV2G2MWYy9+OKuo1kp/xbue4mO/wj9nec/Haxyfn/elLTRzL1P6Xe5yaBmOz02khUVo8F4DNnJT2Eu06DMc6cu+Bu4Zc43EWwZoOtgyOUr/Z93X1++F2Xb/mSPiCldQCtDlllcVu9DbcfJjYpu6uJn7r6P5NU/RyGxSIJiophNePOVSaGQytMxN9tN3dr7S0dYHi7Skbl/C+bSJArJZbJqNUxnW9AYbpFnkxy+iMwmC5lc9IQXRrl6mS/aSLcuT03RNfTyy6RXLkV/p2fIIYFhP+C7/UdNe2AoKcoFDbb0o/bpf4iaM68jNvRsaV8ZaATlyvsrb/0bbFz+Afn7ssm78Hc3OUj/HBrf+K8QbO4RK9WJ7NRtJK6/g40L/57c0wvwhei9mww8igs0kPuitQh1P436534fDV/5B/ZA7rKYt/re/431j/6UvCIumJJye2vVw9O+vgB3cuhA/Qt/gIZX/7C052Hyq/NSSGjlrT9B4tJfkAHE997emGLaO2KaSyDS9zRafuefI3zwFAJ1PF9aHnZri2ZW2pJwX3iuLCXmhZfx+SV1NtQ5CIPnSl2ezsSVN7H0w/+Jjv9zWBu8ik83tAbqbwN+hNgis0hI/ks0//b3yEuI0Sl1DsnL0ICWmbwJc5G8g02mBrwAHytH0UQHziN+5LnS1odRMa1mJLwkT6NiD2LHvobmb/9TscxcF1/IFeEUSr6JCySqdgsTr4upvcAhTQIdhFTasSRXsX7hP2HpL/+Yjn2dnv8s3cweDwmrBjjGl1zemjO/ifqvfhfRg8cRaGwv7XwY7mhgJVbkejguWnkJuuc4/CvQ0Iqgy3GrmFYz5GKxnx458mt0I/8GGl783U0XnvYrXK80M3UL6x//R6z8+F/BRzeyL+C+4q88IpIwkUK46xyiR99A/Yu/g2jvadrh8UG6wuxlMfW8OWIvIhoIdw4hQtbAZuFA+xlOUEgNX0B26gYvROtzXkl8fvovJot6qWs/QH55Qubl6e609yt7Hu/7dnSv+khMuRBvsLGNbmid+ysHzxHn1xeRvXcJJve2IpeMy8kplYJGJhqheMDiOg/cjJErkRW5wr6yL9gzTxMvunD+s6eXRXcQnh/Or3C91qvkak3RoMOLTs4LJMrWYYuUF5e4n5Zb4z1lb+F95ZG1owLM5WnkFu7LIovyMJzplRr+BFZqmX5i91N9/J1ACsX4Q5IMkR5+mwaxdVbX0l6lkEvDXJmR+Oi9Zvd4/nB8BokCvbLkVmUmr4kryyv0ik3RzMHaWEZ64ipSIxfsJoHq3u8cJKZcMMecu43svU+kg4GVIkHd73Bsd57vxUXkHtywB3WPt1H/VfzfPR/7XunvHoWEweenizSPYnoVRqxZAtYDmxT52C+wxZ689SGSn/81suMfiOXu45hSnQ7ZWYo5sVKLVlCynkItB0s79ifSzWFtgbyjd7H+wf8G7u7K6bT2fbg3BHXvBO3nswjUtSEy8CLCXIhXSu/JHID9ln0HZ3kB+ZU5CYfKTlyGuTBuRztogP4OQ49UISuhZ4GmAcQGn0Vs4Fn4a9rgC9WWPIP9c19yz6xCahW5uWFpk528/iM6P3T8Et+8d9gjYmrDFfY5E4qulOiFz083rQjqPoSuajFXIO+qKIM/tymWDgLKk4PvRysBXyACf7wJ4YMvw9/YC0hs7/65L62NOVhLE8hNfYZCZsVOX95D7v0X7CkxZVPsi+6Pv0xq2oMX7VEpcodVwj4XAXqpRfpEYdeA25MYfkmOMGIN5BlE99114IiGYi4pZS6LlkWHvzejSPaWmCpK1VIkIUnb4rrfnjgZzA36jweSvZHtVA4VU0V5UkiI1D5+3PbQYlM5VEwVRVEqAA8ViqIoyjZRMVUURakAKqaKoigVQMVUURSlAqiYKoqiVAAVU0VRlAqgYqooilIBVEwVRVEqgIqpoihKBVAxVRRFqQAqpoqiKBVAxVRRFKUCqJgqiqJUABVTRVGUCqBiqiiKUgFUTBVFUSqAiqmiKEoFUDFVFEWpACqmiqIoFUDFVFEUpQKomCqKolQAFVNFUZQKoGKqKIpSAVRMFUVRKoCKqaIoSgVQMVUURakAKqaKoigVQMVUURSlAqiYKoqiVAAVU0VRlAqgYqooilIBVEwVRVEqgIqpoihKBVAxVRRFqQAqpoqiKNsG+P8BWlD6/bcNhF0AAAAASUVORK5CYII=;" vertex="1" parent="1">
          <mxGeometry x="360" y="260" width="75.11" height="74" as="geometry" />
        </mxCell>
        <mxCell id="Gr0FCKa1cLb1UoH6Iw7f-12" value="PDF" style="text;html=1;align=center;verticalAlign=middle;resizable=0;points=[];autosize=1;strokeColor=none;fillColor=none;" vertex="1" parent="1">
          <mxGeometry x="55" y="493" width="50" height="30" as="geometry" />
        </mxCell>
        <mxCell id="Gr0FCKa1cLb1UoH6Iw7f-13" value="S3-Trigger" style="text;html=1;align=center;verticalAlign=middle;resizable=0;points=[];autosize=1;strokeColor=none;fillColor=none;" vertex="1" parent="1">
          <mxGeometry x="221" y="368" width="80" height="30" as="geometry" />
        </mxCell>
        <mxCell id="Gr0FCKa1cLb1UoH6Iw7f-14" value="Lamda to extract text" style="text;html=1;align=center;verticalAlign=middle;resizable=0;points=[];autosize=1;strokeColor=none;fillColor=none;" vertex="1" parent="1">
          <mxGeometry x="332" y="340" width="140" height="30" as="geometry" />
        </mxCell>
        <mxCell id="Gr0FCKa1cLb1UoH6Iw7f-23" style="edgeStyle=orthogonalEdgeStyle;rounded=0;orthogonalLoop=1;jettySize=auto;html=1;" edge="1" parent="1" source="Gr0FCKa1cLb1UoH6Iw7f-15">
          <mxGeometry relative="1" as="geometry">
            <mxPoint x="540" y="90" as="targetPoint" />
          </mxGeometry>
        </mxCell>
        <mxCell id="Gr0FCKa1cLb1UoH6Iw7f-15" value="" style="sketch=0;outlineConnect=0;fontColor=#232F3E;gradientColor=none;fillColor=#7AA116;strokeColor=none;dashed=0;verticalLabelPosition=bottom;verticalAlign=top;align=center;html=1;fontSize=12;fontStyle=0;aspect=fixed;pointerEvents=1;shape=mxgraph.aws4.bucket;" vertex="1" parent="1">
          <mxGeometry x="371.31" y="425" width="65.38" height="68" as="geometry" />
        </mxCell>
        <mxCell id="Gr0FCKa1cLb1UoH6Iw7f-17" style="edgeStyle=orthogonalEdgeStyle;rounded=0;orthogonalLoop=1;jettySize=auto;html=1;entryX=0.408;entryY=-0.029;entryDx=0;entryDy=0;entryPerimeter=0;" edge="1" parent="1" source="Gr0FCKa1cLb1UoH6Iw7f-10" target="Gr0FCKa1cLb1UoH6Iw7f-15">
          <mxGeometry relative="1" as="geometry" />
        </mxCell>
        <mxCell id="Gr0FCKa1cLb1UoH6Iw7f-26" style="edgeStyle=orthogonalEdgeStyle;rounded=0;orthogonalLoop=1;jettySize=auto;html=1;" edge="1" parent="1" target="Gr0FCKa1cLb1UoH6Iw7f-25">
          <mxGeometry relative="1" as="geometry">
            <mxPoint x="695" y="400" as="targetPoint" />
            <mxPoint x="695" y="138" as="sourcePoint" />
            <Array as="points">
              <mxPoint x="696" y="138" />
              <mxPoint x="696" y="280" />
              <mxPoint x="697" y="280" />
            </Array>
          </mxGeometry>
        </mxCell>
        <mxCell id="Gr0FCKa1cLb1UoH6Iw7f-18" value="" style="outlineConnect=0;dashed=0;verticalLabelPosition=bottom;verticalAlign=top;align=center;html=1;shape=mxgraph.aws3.glue;fillColor=#F58534;gradientColor=none;" vertex="1" parent="1">
          <mxGeometry x="660" y="40" width="70" height="88" as="geometry" />
        </mxCell>
        <mxCell id="Gr0FCKa1cLb1UoH6Iw7f-19" value="" style="sketch=0;aspect=fixed;pointerEvents=1;shadow=0;dashed=0;html=1;strokeColor=none;labelPosition=center;verticalLabelPosition=bottom;verticalAlign=top;align=center;shape=mxgraph.mscae.enterprise.triggers;fillColor=#0078D7;" vertex="1" parent="1">
          <mxGeometry x="360" y="67" width="47" height="50" as="geometry" />
        </mxCell>
        <mxCell id="Gr0FCKa1cLb1UoH6Iw7f-20" style="edgeStyle=orthogonalEdgeStyle;rounded=0;orthogonalLoop=1;jettySize=auto;html=1;entryX=0;entryY=0.54;entryDx=0;entryDy=0;entryPerimeter=0;" edge="1" parent="1" source="Gr0FCKa1cLb1UoH6Iw7f-1" target="Gr0FCKa1cLb1UoH6Iw7f-19">
          <mxGeometry relative="1" as="geometry" />
        </mxCell>
        <mxCell id="Gr0FCKa1cLb1UoH6Iw7f-21" style="edgeStyle=orthogonalEdgeStyle;rounded=0;orthogonalLoop=1;jettySize=auto;html=1;entryX=0.143;entryY=0.591;entryDx=0;entryDy=0;entryPerimeter=0;" edge="1" parent="1">
          <mxGeometry relative="1" as="geometry">
            <mxPoint x="401" y="92.00800000000004" as="sourcePoint" />
            <mxPoint x="664.01" y="92.00800000000004" as="targetPoint" />
          </mxGeometry>
        </mxCell>
        <mxCell id="Gr0FCKa1cLb1UoH6Iw7f-22" value="Raw text in JSON" style="text;html=1;align=center;verticalAlign=middle;resizable=0;points=[];autosize=1;strokeColor=none;fillColor=none;" vertex="1" parent="1">
          <mxGeometry x="340" y="488" width="120" height="30" as="geometry" />
        </mxCell>
        <mxCell id="Gr0FCKa1cLb1UoH6Iw7f-24" value="Data Processed in&lt;br&gt;Glue" style="text;html=1;align=center;verticalAlign=middle;resizable=0;points=[];autosize=1;strokeColor=none;fillColor=none;" vertex="1" parent="1">
          <mxGeometry x="502" y="233" width="120" height="40" as="geometry" />
        </mxCell>
        <mxCell id="Gr0FCKa1cLb1UoH6Iw7f-25" value="" style="sketch=0;outlineConnect=0;fontColor=#232F3E;gradientColor=none;fillColor=#7AA116;strokeColor=none;dashed=0;verticalLabelPosition=bottom;verticalAlign=top;align=center;html=1;fontSize=12;fontStyle=0;aspect=fixed;pointerEvents=1;shape=mxgraph.aws4.bucket;" vertex="1" parent="1">
          <mxGeometry x="664.62" y="420" width="65.38" height="68" as="geometry" />
        </mxCell>
        <mxCell id="Gr0FCKa1cLb1UoH6Iw7f-27" value="Processed Data" style="text;html=1;align=center;verticalAlign=middle;resizable=0;points=[];autosize=1;strokeColor=none;fillColor=none;" vertex="1" parent="1">
          <mxGeometry x="645" y="228" width="110" height="30" as="geometry" />
        </mxCell>
        <mxCell id="Gr0FCKa1cLb1UoH6Iw7f-28" value="Glue to extract Questions" style="text;html=1;align=center;verticalAlign=middle;resizable=0;points=[];autosize=1;strokeColor=none;fillColor=none;" vertex="1" parent="1">
          <mxGeometry x="626" y="118" width="160" height="30" as="geometry" />
        </mxCell>
        <mxCell id="Gr0FCKa1cLb1UoH6Iw7f-29" value="Trigger" style="text;html=1;align=center;verticalAlign=middle;resizable=0;points=[];autosize=1;strokeColor=none;fillColor=none;" vertex="1" parent="1">
          <mxGeometry x="352" y="112" width="60" height="30" as="geometry" />
        </mxCell>
        <mxCell id="Gr0FCKa1cLb1UoH6Iw7f-30" value="Questions in CSV" style="text;html=1;align=center;verticalAlign=middle;resizable=0;points=[];autosize=1;strokeColor=none;fillColor=none;" vertex="1" parent="1">
          <mxGeometry x="640" y="485" width="120" height="30" as="geometry" />
        </mxCell>
      </root>
    </mxGraphModel>
  </diagram>
</mxfile>
